{"title":"Sherlock Holmes and the Sign of Four (2001) Matt Frewer","uid":15455691,"size":2154825077,"categoryP":"video","categoryS":"movies","magnet":"?xt=urn:btih:fd6e488ea316795601a921b0e4b383c5de2a3a4d&amp;dn=Sherlock+Holmes+and+the+Sign+of+Four+%282001%29+Matt+Frewer&amp;tr=udp%3A%2F%2Ftracker.leechers-paradise.org%3A6969&amp;tr=udp%3A%2F%2Fzer0day.ch%3A1337&amp;tr=udp%3A%2F%2Fopen.demonii.com%3A1337&amp;tr=udp%3A%2F%2Ftracker.coppersurfer.tk%3A6969&amp;tr=udp%3A%2F%2Fexodus.desync.com%3A6969","seeders":0,"leechers":1,"uploader":"cjbbaugh","files":1,"time":1469982728,"description":"Greed, betrayal and vengeance set the stage for this Sir Arthur Conan Doyle classic. Mary Morstan, a young governess, has been receiving a rare and lustrous pearl annually from an anonymous benefactor. This mysterious person now wants a meeting. Anxious and bewildered, Miss Morstan enlists Sherlock Holmes and Dr. Watson to escort her to this meeting. Together they go to the home of an eccentric novelist, Thaddeus Sholto, who recounts to them a tale of secrecy, hidden treasure and sudden death. Thaddeus reports that his father, Major Sholto, was in the army in India with Miss Morstan's father where the two had come to possess a fabulous treasure. Subsequently, her father mysteriously disappeared without his promised share. A guilt-ridden Major Sholto hid the treasure and sent Miss Morstan the annual gift of pearls. Years later, a letter arrives which leaves Major Sholto in a state of shock and despair. On his deathbed, Major Sholto prepares to tell his twin sons about the treasure's location, but dies before the location is revealed. Thaddeus' twin brother, Bartholomew, spent weeks digging and searching for the treasure - and has now just found it. - Written by Betty Palik \r\n\r\nThe second of four Holmes adaptations starring Frewer as Holmes, was preceded by The Hound of the Baskervilles in 2000, and then followed by The Royal Scandal (a blend of &quot;A Scandal in Bohemia&quot; and &quot;The Bruce-Partington Plans&quot;) also in 2001, and The Case of the Whitechapel Vampire (an original story) in 2002. This is the last of the four that I uploaded.\r\n\r\nGeneral\r\nComplete name : Sherlock Holmes and the Sign of Four (2001) Matt Frewer.mp4\r\nFormat : MPEG-4\r\nFormat profile : Base Media / Version 2\r\nCodec ID : mp42\r\nFile size : 2.01 GiB\r\nDuration : 1h 28mn\r\nOverall bit rate : 3 242 Kbps\r\nContentType : Unknown Type\r\nEncoded date : UTC 2015-02-17 02:05:08\r\nTagged date : UTC 2015-02-17 02:05:08\r\n\r\nVideo\r\nID : 1\r\nFormat : AVC\r\nFormat/Info : Advanced Video Codec\r\nFormat profile :   \r\nFormat settings, CABAC : No\r\nFormat settings, ReFrames : 1 frame\r\nMuxing mode : Container   \r\nCodec ID : avc1\r\nCodec ID/Info : Advanced Video Coding\r\nDuration : 1h 28mn\r\nSource duration : 1h 28mn\r\nBit rate : 3 131 Kbps\r\nWidth : 1 024 pixels\r\nHeight : 600 pixels\r\nDisplay aspect ratio : 1.707\r\nFrame rate mode : Constant\r\nFrame rate : 23.976 fps\r\nOriginal frame rate : 23.000 fps\r\nColor space : YUV\r\nChroma subsampling : 4:2:0\r\nBit depth : 8 bits\r\nScan type : Progressive\r\nBits/(Pixel*Frame) : 0.213\r\nStream size : 1.94 GiB (97%)\r\nSource stream size : 1.94 GiB (97%)\r\nLanguage : English\r\n\r\nAudio\r\nID : 2\r\nFormat : AAC\r\nFormat/Info : Advanced Audio Codec\r\nFormat profile : LC\r\nCodec ID : 40\r\nDuration : 1h 28mn\r\nBit rate mode : Constant\r\nBit rate : 106 Kbps\r\nChannel(s) : 2 channels\r\nChannel positions : Front: L R\r\nSampling rate : 48.0 KHz\r\nCompression mode : Lossy\r\nStream size : 67.1 MiB (3%)\r\nLanguage : English","torrent":{"xt":"urn:btih:fd6e488ea316795601a921b0e4b383c5de2a3a4d","amp;dn":"Sherlock+Holmes+and+the+Sign+of+Four+%282001%29+Matt+Frewer","amp;tr":["udp%3A%2F%2Ftracker.leechers-paradise.org%3A6969","udp%3A%2F%2Fzer0day.ch%3A1337","udp%3A%2F%2Fopen.demonii.com%3A1337","udp%3A%2F%2Ftracker.coppersurfer.tk%3A6969","udp%3A%2F%2Fexodus.desync.com%3A6969"],"infoHash":"fd6e488ea316795601a921b0e4b383c5de2a3a4d","infoHashBuffer":{"type":"Buffer","data":[253,110,72,142,163,22,121,86,1,169,33,176,228,179,131,197,222,42,58,77]},"announce":[],"urlList":[]}}